<svg width="61" height="58" viewBox="0 0 61 58" fill="none" xmlns="http://www.w3.org/2000/svg">
<path d="M5.88225 29L15.2807 29L15.2807 37.2857C15.2807 41.8558 11.909 45.5714 7.76194 45.5714L6.82209 45.5714C5.2596 45.5714 4.00256 46.9567 4.00256 48.6786L4.00256 54.8929C4.00256 56.6147 5.2596 58 6.82209 58L7.76194 58C18.1472 58 26.5588 48.7304 26.5588 37.2857L26.5588 6.21428C26.5588 2.78348 24.033 -3.48786e-06 20.9198 -3.7865e-06L5.88225 -5.22897e-06C2.76902 -5.52761e-06 0.243191 2.78348 0.243191 6.21428L0.24319 22.7857C0.243189 26.2165 2.76902 29 5.88225 29ZM39.7166 29L49.1151 29L49.1151 37.2857C49.1151 41.8558 45.7434 45.5714 41.5963 45.5714L40.6565 45.5714C39.094 45.5714 37.8369 46.9567 37.8369 48.6786L37.8369 54.8929C37.8369 56.6147 39.094 58 40.6565 58L41.5963 58C51.9816 58 60.3932 48.7304 60.3932 37.2857L60.3932 6.21429C60.3932 2.78348 57.8674 -2.42291e-07 54.7541 -5.40928e-07L39.7166 -1.9834e-06C36.6034 -2.28204e-06 34.0776 2.78348 34.0776 6.21428L34.0776 22.7857C34.0776 26.2165 36.6034 29 39.7166 29Z" fill="#EEEEEE"/>
</svg>
