<svg width="61" height="58" viewBox="0 0 61 58" fill="none" xmlns="http://www.w3.org/2000/svg">
<path d="M54.8269 29H45.4284V20.7143C45.4284 16.1442 48.8001 12.4286 52.9472 12.4286H53.887C55.4495 12.4286 56.7065 11.0433 56.7065 9.32143V3.10714C56.7065 1.38527 55.4495 0 53.887 0H52.9472C42.5619 0 34.1503 9.26964 34.1503 20.7143V51.7857C34.1503 55.2165 36.6761 58 39.7894 58H54.8269C57.9401 58 60.4659 55.2165 60.4659 51.7857V35.2143C60.4659 31.7835 57.9401 29 54.8269 29ZM20.9925 29H11.594V20.7143C11.594 16.1442 14.9657 12.4286 19.1128 12.4286H20.0526C21.6151 12.4286 22.8722 11.0433 22.8722 9.32143V3.10714C22.8722 1.38527 21.6151 0 20.0526 0H19.1128C8.72752 0 0.315918 9.26964 0.315918 20.7143V51.7857C0.315918 55.2165 2.84175 58 5.95498 58H20.9925C24.1057 58 26.6315 55.2165 26.6315 51.7857V35.2143C26.6315 31.7835 24.1057 29 20.9925 29Z" fill="#EEEEEE"/>
</svg>
