<svg width="223" height="33" viewBox="0 0 223 33" fill="none" xmlns="http://www.w3.org/2000/svg">
<path d="M16.1008 1.13178L11.9517 9.54423L2.66883 10.8976C1.00413 11.139 0.336982 13.1913 1.54421 14.3668L8.26018 20.9112L6.67173 30.156C6.38581 31.827 8.14581 33.0787 9.6199 32.2972L17.9243 27.9321L26.2288 32.2972C27.7028 33.0724 29.4628 31.827 29.1769 30.156L27.5885 20.9112L34.3044 14.3668C35.5117 13.1913 34.8445 11.139 33.1798 10.8976L23.8969 9.54423L19.7479 1.13178C19.0045 -0.367715 16.8505 -0.386777 16.1008 1.13178Z" fill="white"/>
<path d="M62.9461 1.13178L58.7971 9.54423L49.5142 10.8976C47.8495 11.139 47.1823 13.1913 48.3895 14.3668L55.1055 20.9112L53.5171 30.156C53.2311 31.827 54.9912 33.0787 56.4652 32.2972L64.7697 27.9321L73.0741 32.2972C74.5482 33.0724 76.3082 31.827 76.0223 30.156L74.4338 20.9112L81.1498 14.3668C82.357 13.1913 81.6899 11.139 80.0252 10.8976L70.7422 9.54423L66.5932 1.13178C65.8498 -0.367715 63.6959 -0.386777 62.9461 1.13178Z" fill="white"/>
<path d="M109.791 1.13178L105.642 9.54423L96.3595 10.8976C94.6948 11.139 94.0277 13.1913 95.2349 14.3668L101.951 20.9112L100.362 30.156C100.076 31.827 101.836 33.0787 103.311 32.2972L111.615 27.9321L119.919 32.2972C121.394 33.0724 123.154 31.827 122.868 30.156L121.279 20.9112L127.995 14.3668C129.202 13.1913 128.535 11.139 126.87 10.8976L117.588 9.54423L113.439 1.13178C112.695 -0.367715 110.541 -0.386777 109.791 1.13178Z" fill="white"/>
<path d="M156.637 1.13178L152.488 9.54423L143.205 10.8976C141.54 11.139 140.873 13.1913 142.08 14.3668L148.796 20.9112L147.208 30.156C146.922 31.827 148.682 33.0787 150.156 32.2972L158.46 27.9321L166.765 32.2972C168.239 33.0724 169.999 31.827 169.713 30.156L168.125 20.9112L174.841 14.3668C176.048 13.1913 175.381 11.139 173.716 10.8976L164.433 9.54423L160.284 1.13178C159.541 -0.367715 157.387 -0.386777 156.637 1.13178Z" fill="white"/>
<path d="M203.482 1.13178L199.333 9.54423L190.05 10.8976C188.386 11.139 187.718 13.1913 188.926 14.3668L195.642 20.9112L194.053 30.156C193.767 31.827 195.527 33.0787 197.001 32.2972L205.306 27.9321L213.61 32.2972C215.084 33.0724 216.844 31.827 216.558 30.156L214.97 20.9112L221.686 14.3668C222.893 13.1913 222.226 11.139 220.561 10.8976L211.278 9.54423L207.129 1.13178C206.386 -0.367715 204.232 -0.386777 203.482 1.13178Z" fill="white"/>
</svg>
